<mxfile host="app.diagrams.net" modified="2023-02-03T21:36:13.737Z" agent="5.0 (Windows NT 10.0; Win64; x64) AppleWebKit/537.36 (KHTML, like Gecko) Chrome/109.0.0.0 Safari/537.36" etag="VRupMHQetUKkbihjff1B" version="20.8.15" type="github">
  <diagram name="Page-1" id="c4acf3e9-155e-7222-9cf6-157b1a14988f">
    <mxGraphModel dx="1221" dy="668" grid="1" gridSize="10" guides="1" tooltips="1" connect="1" arrows="1" fold="1" page="1" pageScale="1" pageWidth="1100" pageHeight="850" background="none" math="0" shadow="0">
      <root>
        <mxCell id="0" />
        <mxCell id="1" parent="0" />
        <mxCell id="17acba5748e5396b-1" value="frame" style="shape=umlFrame;whiteSpace=wrap;html=1;rounded=0;shadow=0;comic=0;labelBackgroundColor=none;strokeWidth=1;fontFamily=Verdana;fontSize=10;align=center;" parent="1" vertex="1">
          <mxGeometry x="20" y="20" width="1060" height="810" as="geometry" />
        </mxCell>
        <mxCell id="BpKrfiNGWXmPdri83k6H-61" style="rounded=0;orthogonalLoop=1;jettySize=auto;html=1;exitX=1;exitY=0.25;exitDx=0;exitDy=0;entryX=0;entryY=0.5;entryDx=0;entryDy=0;dashed=1;endArrow=block;endFill=0;" parent="1" source="5d2195bd80daf111-12" target="BpKrfiNGWXmPdri83k6H-39" edge="1">
          <mxGeometry relative="1" as="geometry" />
        </mxCell>
        <mxCell id="5d2195bd80daf111-12" value="&lt;p style=&quot;margin:0px;margin-top:4px;text-align:center;&quot;&gt;&lt;i&gt;&amp;lt;&amp;lt;Interface&amp;gt;&amp;gt;&lt;/i&gt;&lt;br&gt;&lt;b&gt;displayFactory&lt;/b&gt;&lt;/p&gt;&lt;hr size=&quot;1&quot;&gt;&lt;p style=&quot;margin:0px;margin-left:4px;&quot;&gt;displayDate(): dateObject&lt;br&gt;displayTime(): timeObject&lt;/p&gt;" style="verticalAlign=top;align=left;overflow=fill;fontSize=12;fontFamily=Helvetica;html=1;rounded=0;shadow=0;comic=0;labelBackgroundColor=none;strokeWidth=1" parent="1" vertex="1">
          <mxGeometry x="55" y="428" width="190" height="86" as="geometry" />
        </mxCell>
        <mxCell id="5d2195bd80daf111-20" value="&lt;p style=&quot;margin:0px;margin-top:4px;text-align:center;&quot;&gt;&lt;i&gt;&amp;lt;&amp;lt;Interface&amp;gt;&amp;gt;&lt;/i&gt;&lt;br&gt;&lt;b&gt;dateObject&lt;/b&gt;&lt;/p&gt;&lt;hr size=&quot;1&quot;&gt;&lt;p style=&quot;margin:0px;margin-left:4px;&quot;&gt;display(): void&lt;br&gt;&lt;/p&gt;" style="verticalAlign=top;align=left;overflow=fill;fontSize=12;fontFamily=Helvetica;html=1;rounded=0;shadow=0;comic=0;labelBackgroundColor=none;strokeWidth=1" parent="1" vertex="1">
          <mxGeometry x="750" y="118" width="190" height="70" as="geometry" />
        </mxCell>
        <mxCell id="BpKrfiNGWXmPdri83k6H-12" value="&lt;b&gt;formatOneDate&lt;/b&gt;" style="swimlane;html=1;fontStyle=0;childLayout=stackLayout;horizontal=1;startSize=26;fillColor=none;horizontalStack=0;resizeParent=1;resizeLast=0;collapsible=1;marginBottom=0;swimlaneFillColor=#ffffff;rounded=0;shadow=0;comic=0;labelBackgroundColor=none;strokeWidth=1;fontFamily=Verdana;fontSize=10;align=center;" parent="1" vertex="1">
          <mxGeometry x="670" y="245" width="160" height="52" as="geometry" />
        </mxCell>
        <mxCell id="BpKrfiNGWXmPdri83k6H-13" value="+ display(): void" style="text;html=1;strokeColor=none;fillColor=none;align=left;verticalAlign=top;spacingLeft=4;spacingRight=4;whiteSpace=wrap;overflow=hidden;rotatable=0;points=[[0,0.5],[1,0.5]];portConstraint=eastwest;" parent="BpKrfiNGWXmPdri83k6H-12" vertex="1">
          <mxGeometry y="26" width="160" height="26" as="geometry" />
        </mxCell>
        <mxCell id="BpKrfiNGWXmPdri83k6H-16" value="&lt;b&gt;formatTwoTime&lt;/b&gt;" style="swimlane;html=1;fontStyle=0;childLayout=stackLayout;horizontal=1;startSize=26;fillColor=none;horizontalStack=0;resizeParent=1;resizeLast=0;collapsible=1;marginBottom=0;swimlaneFillColor=#ffffff;rounded=0;shadow=0;comic=0;labelBackgroundColor=none;strokeWidth=1;fontFamily=Verdana;fontSize=10;align=center;" parent="1" vertex="1">
          <mxGeometry x="860" y="578" width="160" height="52" as="geometry" />
        </mxCell>
        <mxCell id="BpKrfiNGWXmPdri83k6H-17" value="+ display(): void" style="text;html=1;strokeColor=none;fillColor=none;align=left;verticalAlign=top;spacingLeft=4;spacingRight=4;whiteSpace=wrap;overflow=hidden;rotatable=0;points=[[0,0.5],[1,0.5]];portConstraint=eastwest;" parent="BpKrfiNGWXmPdri83k6H-16" vertex="1">
          <mxGeometry y="26" width="160" height="26" as="geometry" />
        </mxCell>
        <mxCell id="BpKrfiNGWXmPdri83k6H-18" value="&lt;p style=&quot;margin:0px;margin-top:4px;text-align:center;&quot;&gt;&lt;i&gt;&amp;lt;&amp;lt;Interface&amp;gt;&amp;gt;&lt;/i&gt;&lt;br&gt;&lt;b&gt;timeObject&lt;/b&gt;&lt;/p&gt;&lt;hr size=&quot;1&quot;&gt;&lt;p style=&quot;margin:0px;margin-left:4px;&quot;&gt;display(): void&lt;br&gt;&lt;/p&gt;" style="verticalAlign=top;align=left;overflow=fill;fontSize=12;fontFamily=Helvetica;html=1;rounded=0;shadow=0;comic=0;labelBackgroundColor=none;strokeWidth=1" parent="1" vertex="1">
          <mxGeometry x="750" y="458" width="190" height="70" as="geometry" />
        </mxCell>
        <mxCell id="BpKrfiNGWXmPdri83k6H-19" value="&lt;b&gt;formatTwoDate&lt;/b&gt;" style="swimlane;html=1;fontStyle=0;childLayout=stackLayout;horizontal=1;startSize=26;fillColor=none;horizontalStack=0;resizeParent=1;resizeLast=0;collapsible=1;marginBottom=0;swimlaneFillColor=#ffffff;rounded=0;shadow=0;comic=0;labelBackgroundColor=none;strokeWidth=1;fontFamily=Verdana;fontSize=10;align=center;" parent="1" vertex="1">
          <mxGeometry x="860" y="245" width="160" height="52" as="geometry" />
        </mxCell>
        <mxCell id="BpKrfiNGWXmPdri83k6H-20" value="+ display(): void" style="text;html=1;strokeColor=none;fillColor=none;align=left;verticalAlign=top;spacingLeft=4;spacingRight=4;whiteSpace=wrap;overflow=hidden;rotatable=0;points=[[0,0.5],[1,0.5]];portConstraint=eastwest;" parent="BpKrfiNGWXmPdri83k6H-19" vertex="1">
          <mxGeometry y="26" width="160" height="26" as="geometry" />
        </mxCell>
        <mxCell id="BpKrfiNGWXmPdri83k6H-21" value="&lt;b&gt;formatOneTime&lt;/b&gt;" style="swimlane;html=1;fontStyle=0;childLayout=stackLayout;horizontal=1;startSize=26;fillColor=none;horizontalStack=0;resizeParent=1;resizeLast=0;collapsible=1;marginBottom=0;swimlaneFillColor=#ffffff;rounded=0;shadow=0;comic=0;labelBackgroundColor=none;strokeWidth=1;fontFamily=Verdana;fontSize=10;align=center;" parent="1" vertex="1">
          <mxGeometry x="670" y="578" width="160" height="52" as="geometry" />
        </mxCell>
        <mxCell id="BpKrfiNGWXmPdri83k6H-22" value="+ display(): void" style="text;html=1;strokeColor=none;fillColor=none;align=left;verticalAlign=top;spacingLeft=4;spacingRight=4;whiteSpace=wrap;overflow=hidden;rotatable=0;points=[[0,0.5],[1,0.5]];portConstraint=eastwest;" parent="BpKrfiNGWXmPdri83k6H-21" vertex="1">
          <mxGeometry y="26" width="160" height="26" as="geometry" />
        </mxCell>
        <mxCell id="BpKrfiNGWXmPdri83k6H-28" value="client" style="swimlane;fontStyle=1;align=center;verticalAlign=top;childLayout=stackLayout;horizontal=1;startSize=26;horizontalStack=0;resizeParent=1;resizeParentMax=0;resizeLast=0;collapsible=1;marginBottom=0;strokeColor=default;strokeWidth=1;" parent="1" vertex="1">
          <mxGeometry x="65" y="189" width="180" height="164" as="geometry" />
        </mxCell>
        <mxCell id="BpKrfiNGWXmPdri83k6H-32" value="- date: dateObject" style="text;strokeColor=none;fillColor=none;align=left;verticalAlign=top;spacingLeft=4;spacingRight=4;overflow=hidden;rotatable=0;points=[[0,0.5],[1,0.5]];portConstraint=eastwest;strokeWidth=1;" parent="BpKrfiNGWXmPdri83k6H-28" vertex="1">
          <mxGeometry y="26" width="180" height="26" as="geometry" />
        </mxCell>
        <mxCell id="BpKrfiNGWXmPdri83k6H-29" value="- time: timeObject" style="text;strokeColor=none;fillColor=none;align=left;verticalAlign=top;spacingLeft=4;spacingRight=4;overflow=hidden;rotatable=0;points=[[0,0.5],[1,0.5]];portConstraint=eastwest;strokeWidth=1;" parent="BpKrfiNGWXmPdri83k6H-28" vertex="1">
          <mxGeometry y="52" width="180" height="26" as="geometry" />
        </mxCell>
        <mxCell id="BpKrfiNGWXmPdri83k6H-30" value="" style="line;strokeWidth=1;fillColor=none;align=left;verticalAlign=middle;spacingTop=-1;spacingLeft=3;spacingRight=3;rotatable=0;labelPosition=right;points=[];portConstraint=eastwest;strokeColor=inherit;" parent="BpKrfiNGWXmPdri83k6H-28" vertex="1">
          <mxGeometry y="78" width="180" height="8" as="geometry" />
        </mxCell>
        <mxCell id="BpKrfiNGWXmPdri83k6H-34" value="+ client(displayFactory): client" style="text;strokeColor=none;fillColor=none;align=left;verticalAlign=top;spacingLeft=4;spacingRight=4;overflow=hidden;rotatable=0;points=[[0,0.5],[1,0.5]];portConstraint=eastwest;strokeWidth=1;" parent="BpKrfiNGWXmPdri83k6H-28" vertex="1">
          <mxGeometry y="86" width="180" height="26" as="geometry" />
        </mxCell>
        <mxCell id="BpKrfiNGWXmPdri83k6H-31" value="+ displayDate(): void" style="text;strokeColor=none;fillColor=none;align=left;verticalAlign=top;spacingLeft=4;spacingRight=4;overflow=hidden;rotatable=0;points=[[0,0.5],[1,0.5]];portConstraint=eastwest;strokeWidth=1;" parent="BpKrfiNGWXmPdri83k6H-28" vertex="1">
          <mxGeometry y="112" width="180" height="26" as="geometry" />
        </mxCell>
        <mxCell id="BpKrfiNGWXmPdri83k6H-35" value="+ displayTime(): void" style="text;strokeColor=none;fillColor=none;align=left;verticalAlign=top;spacingLeft=4;spacingRight=4;overflow=hidden;rotatable=0;points=[[0,0.5],[1,0.5]];portConstraint=eastwest;strokeWidth=1;" parent="BpKrfiNGWXmPdri83k6H-28" vertex="1">
          <mxGeometry y="138" width="180" height="26" as="geometry" />
        </mxCell>
        <mxCell id="BpKrfiNGWXmPdri83k6H-37" value="formatOneFactory" style="swimlane;fontStyle=1;align=center;verticalAlign=top;childLayout=stackLayout;horizontal=1;startSize=26;horizontalStack=0;resizeParent=1;resizeParentMax=0;resizeLast=0;collapsible=1;marginBottom=0;strokeColor=default;strokeWidth=1;" parent="1" vertex="1">
          <mxGeometry x="320" y="220" width="240" height="164" as="geometry" />
        </mxCell>
        <mxCell id="BpKrfiNGWXmPdri83k6H-38" value="a: singletonAF" style="text;strokeColor=none;fillColor=none;align=left;verticalAlign=top;spacingLeft=4;spacingRight=4;overflow=hidden;rotatable=0;points=[[0,0.5],[1,0.5]];portConstraint=eastwest;strokeWidth=1;" parent="BpKrfiNGWXmPdri83k6H-37" vertex="1">
          <mxGeometry y="26" width="240" height="26" as="geometry" />
        </mxCell>
        <mxCell id="BpKrfiNGWXmPdri83k6H-39" value="- formatOneInstance: formatOneFactory" style="text;strokeColor=none;fillColor=none;align=left;verticalAlign=top;spacingLeft=4;spacingRight=4;overflow=hidden;rotatable=0;points=[[0,0.5],[1,0.5]];portConstraint=eastwest;strokeWidth=1;" parent="BpKrfiNGWXmPdri83k6H-37" vertex="1">
          <mxGeometry y="52" width="240" height="26" as="geometry" />
        </mxCell>
        <mxCell id="BpKrfiNGWXmPdri83k6H-40" value="" style="line;strokeWidth=1;fillColor=none;align=left;verticalAlign=middle;spacingTop=-1;spacingLeft=3;spacingRight=3;rotatable=0;labelPosition=right;points=[];portConstraint=eastwest;strokeColor=inherit;" parent="BpKrfiNGWXmPdri83k6H-37" vertex="1">
          <mxGeometry y="78" width="240" height="8" as="geometry" />
        </mxCell>
        <mxCell id="BpKrfiNGWXmPdri83k6H-41" value="+ getInstance(): formatOneFactory" style="text;strokeColor=none;fillColor=none;align=left;verticalAlign=top;spacingLeft=4;spacingRight=4;overflow=hidden;rotatable=0;points=[[0,0.5],[1,0.5]];portConstraint=eastwest;strokeWidth=1;" parent="BpKrfiNGWXmPdri83k6H-37" vertex="1">
          <mxGeometry y="86" width="240" height="26" as="geometry" />
        </mxCell>
        <mxCell id="BpKrfiNGWXmPdri83k6H-42" value="+ displayDate(): dateObject" style="text;strokeColor=none;fillColor=none;align=left;verticalAlign=top;spacingLeft=4;spacingRight=4;overflow=hidden;rotatable=0;points=[[0,0.5],[1,0.5]];portConstraint=eastwest;strokeWidth=1;" parent="BpKrfiNGWXmPdri83k6H-37" vertex="1">
          <mxGeometry y="112" width="240" height="26" as="geometry" />
        </mxCell>
        <mxCell id="BpKrfiNGWXmPdri83k6H-43" value="+ displayTime(): timeObject" style="text;strokeColor=none;fillColor=none;align=left;verticalAlign=top;spacingLeft=4;spacingRight=4;overflow=hidden;rotatable=0;points=[[0,0.5],[1,0.5]];portConstraint=eastwest;strokeWidth=1;" parent="BpKrfiNGWXmPdri83k6H-37" vertex="1">
          <mxGeometry y="138" width="240" height="26" as="geometry" />
        </mxCell>
        <mxCell id="BpKrfiNGWXmPdri83k6H-51" value="formatTwoFactory" style="swimlane;fontStyle=1;align=center;verticalAlign=top;childLayout=stackLayout;horizontal=1;startSize=26;horizontalStack=0;resizeParent=1;resizeParentMax=0;resizeLast=0;collapsible=1;marginBottom=0;strokeColor=default;strokeWidth=1;" parent="1" vertex="1">
          <mxGeometry x="320" y="567" width="240" height="164" as="geometry" />
        </mxCell>
        <mxCell id="BpKrfiNGWXmPdri83k6H-52" value="a: singletonAF" style="text;strokeColor=none;fillColor=none;align=left;verticalAlign=top;spacingLeft=4;spacingRight=4;overflow=hidden;rotatable=0;points=[[0,0.5],[1,0.5]];portConstraint=eastwest;strokeWidth=1;" parent="BpKrfiNGWXmPdri83k6H-51" vertex="1">
          <mxGeometry y="26" width="240" height="26" as="geometry" />
        </mxCell>
        <mxCell id="BpKrfiNGWXmPdri83k6H-53" value="- formatTwoInstance: formatTwoFactory" style="text;strokeColor=none;fillColor=none;align=left;verticalAlign=top;spacingLeft=4;spacingRight=4;overflow=hidden;rotatable=0;points=[[0,0.5],[1,0.5]];portConstraint=eastwest;strokeWidth=1;" parent="BpKrfiNGWXmPdri83k6H-51" vertex="1">
          <mxGeometry y="52" width="240" height="26" as="geometry" />
        </mxCell>
        <mxCell id="BpKrfiNGWXmPdri83k6H-54" value="" style="line;strokeWidth=1;fillColor=none;align=left;verticalAlign=middle;spacingTop=-1;spacingLeft=3;spacingRight=3;rotatable=0;labelPosition=right;points=[];portConstraint=eastwest;strokeColor=inherit;" parent="BpKrfiNGWXmPdri83k6H-51" vertex="1">
          <mxGeometry y="78" width="240" height="8" as="geometry" />
        </mxCell>
        <mxCell id="BpKrfiNGWXmPdri83k6H-55" value="+ getInstance(): formatTwoFactory" style="text;strokeColor=none;fillColor=none;align=left;verticalAlign=top;spacingLeft=4;spacingRight=4;overflow=hidden;rotatable=0;points=[[0,0.5],[1,0.5]];portConstraint=eastwest;strokeWidth=1;" parent="BpKrfiNGWXmPdri83k6H-51" vertex="1">
          <mxGeometry y="86" width="240" height="26" as="geometry" />
        </mxCell>
        <mxCell id="BpKrfiNGWXmPdri83k6H-56" value="+ displayDate(): dateObject" style="text;strokeColor=none;fillColor=none;align=left;verticalAlign=top;spacingLeft=4;spacingRight=4;overflow=hidden;rotatable=0;points=[[0,0.5],[1,0.5]];portConstraint=eastwest;strokeWidth=1;" parent="BpKrfiNGWXmPdri83k6H-51" vertex="1">
          <mxGeometry y="112" width="240" height="26" as="geometry" />
        </mxCell>
        <mxCell id="BpKrfiNGWXmPdri83k6H-57" value="+ displayTime(): timeObject" style="text;strokeColor=none;fillColor=none;align=left;verticalAlign=top;spacingLeft=4;spacingRight=4;overflow=hidden;rotatable=0;points=[[0,0.5],[1,0.5]];portConstraint=eastwest;strokeWidth=1;" parent="BpKrfiNGWXmPdri83k6H-51" vertex="1">
          <mxGeometry y="138" width="240" height="26" as="geometry" />
        </mxCell>
        <mxCell id="BpKrfiNGWXmPdri83k6H-60" value="" style="endArrow=block;dashed=1;html=1;rounded=0;entryX=0;entryY=0.5;entryDx=0;entryDy=0;exitX=1;exitY=0.75;exitDx=0;exitDy=0;endFill=0;" parent="1" source="5d2195bd80daf111-12" target="BpKrfiNGWXmPdri83k6H-55" edge="1">
          <mxGeometry width="50" height="50" relative="1" as="geometry">
            <mxPoint x="560" y="478" as="sourcePoint" />
            <mxPoint x="610" y="428" as="targetPoint" />
          </mxGeometry>
        </mxCell>
        <mxCell id="BpKrfiNGWXmPdri83k6H-62" style="rounded=0;orthogonalLoop=1;jettySize=auto;html=1;exitX=0.5;exitY=0;exitDx=0;exitDy=0;entryX=0.5;entryY=1;entryDx=0;entryDy=0;dashed=1;endArrow=block;endFill=0;" parent="1" source="BpKrfiNGWXmPdri83k6H-12" target="5d2195bd80daf111-20" edge="1">
          <mxGeometry relative="1" as="geometry">
            <mxPoint x="645" y="457.5" as="sourcePoint" />
            <mxPoint x="750" y="301" as="targetPoint" />
          </mxGeometry>
        </mxCell>
        <mxCell id="BpKrfiNGWXmPdri83k6H-63" style="rounded=0;orthogonalLoop=1;jettySize=auto;html=1;exitX=0.5;exitY=0;exitDx=0;exitDy=0;entryX=0.5;entryY=1;entryDx=0;entryDy=0;dashed=1;endArrow=block;endFill=0;" parent="1" source="BpKrfiNGWXmPdri83k6H-21" target="BpKrfiNGWXmPdri83k6H-18" edge="1">
          <mxGeometry relative="1" as="geometry">
            <mxPoint x="640" y="531" as="sourcePoint" />
            <mxPoint x="735" y="490" as="targetPoint" />
          </mxGeometry>
        </mxCell>
        <mxCell id="BpKrfiNGWXmPdri83k6H-64" style="rounded=0;orthogonalLoop=1;jettySize=auto;html=1;exitX=0.5;exitY=0;exitDx=0;exitDy=0;entryX=0.5;entryY=1;entryDx=0;entryDy=0;dashed=1;endArrow=block;endFill=0;" parent="1" source="BpKrfiNGWXmPdri83k6H-19" target="5d2195bd80daf111-20" edge="1">
          <mxGeometry relative="1" as="geometry">
            <mxPoint x="770" y="370.5" as="sourcePoint" />
            <mxPoint x="865" y="331.5" as="targetPoint" />
          </mxGeometry>
        </mxCell>
        <mxCell id="BpKrfiNGWXmPdri83k6H-65" style="rounded=0;orthogonalLoop=1;jettySize=auto;html=1;exitX=0.5;exitY=0;exitDx=0;exitDy=0;entryX=0.5;entryY=1;entryDx=0;entryDy=0;dashed=1;endArrow=block;endFill=0;" parent="1" source="BpKrfiNGWXmPdri83k6H-16" target="BpKrfiNGWXmPdri83k6H-18" edge="1">
          <mxGeometry relative="1" as="geometry">
            <mxPoint x="1055" y="481" as="sourcePoint" />
            <mxPoint x="960" y="440" as="targetPoint" />
          </mxGeometry>
        </mxCell>
        <mxCell id="BpKrfiNGWXmPdri83k6H-67" value="" style="endArrow=classic;html=1;rounded=0;exitX=0.47;exitY=1.167;exitDx=0;exitDy=0;exitPerimeter=0;" parent="1" source="BpKrfiNGWXmPdri83k6H-35" target="5d2195bd80daf111-12" edge="1">
          <mxGeometry width="50" height="50" relative="1" as="geometry">
            <mxPoint x="20" y="530.7363184079602" as="sourcePoint" />
            <mxPoint x="349" y="498" as="targetPoint" />
          </mxGeometry>
        </mxCell>
        <mxCell id="BpKrfiNGWXmPdri83k6H-68" value="" style="endArrow=classic;html=1;rounded=0;entryX=0.513;entryY=1;entryDx=0;entryDy=0;entryPerimeter=0;exitX=1;exitY=0.5;exitDx=0;exitDy=0;edgeStyle=orthogonalEdgeStyle;" parent="1" source="BpKrfiNGWXmPdri83k6H-53" target="BpKrfiNGWXmPdri83k6H-20" edge="1">
          <mxGeometry width="50" height="50" relative="1" as="geometry">
            <mxPoint x="630" y="460.7363184079602" as="sourcePoint" />
            <mxPoint x="959" y="428" as="targetPoint" />
            <Array as="points">
              <mxPoint x="560" y="633" />
              <mxPoint x="640" y="633" />
              <mxPoint x="640" y="428" />
              <mxPoint x="942" y="428" />
            </Array>
          </mxGeometry>
        </mxCell>
        <mxCell id="BpKrfiNGWXmPdri83k6H-70" value="" style="endArrow=classic;html=1;rounded=0;entryX=0.478;entryY=1.201;entryDx=0;entryDy=0;entryPerimeter=0;exitX=1;exitY=0.75;exitDx=0;exitDy=0;edgeStyle=orthogonalEdgeStyle;" parent="1" source="BpKrfiNGWXmPdri83k6H-37" target="BpKrfiNGWXmPdri83k6H-22" edge="1">
          <mxGeometry width="50" height="50" relative="1" as="geometry">
            <mxPoint x="600" y="643" as="sourcePoint" />
            <mxPoint x="952.0799999999999" y="371" as="targetPoint" />
            <Array as="points">
              <mxPoint x="660" y="343" />
              <mxPoint x="660" y="660" />
              <mxPoint x="747" y="660" />
            </Array>
          </mxGeometry>
        </mxCell>
        <mxCell id="BpKrfiNGWXmPdri83k6H-76" value="" style="endArrow=classic;html=1;rounded=0;entryX=0.516;entryY=1.261;entryDx=0;entryDy=0;entryPerimeter=0;exitX=1;exitY=0.5;exitDx=0;exitDy=0;edgeStyle=orthogonalEdgeStyle;" parent="1" source="BpKrfiNGWXmPdri83k6H-53" target="BpKrfiNGWXmPdri83k6H-17" edge="1">
          <mxGeometry width="50" height="50" relative="1" as="geometry">
            <mxPoint x="610" y="699.6600000000001" as="sourcePoint" />
            <mxPoint x="770.48" y="658.002" as="targetPoint" />
            <Array as="points">
              <mxPoint x="560" y="633" />
              <mxPoint x="640" y="633" />
              <mxPoint x="640" y="693" />
              <mxPoint x="943" y="693" />
            </Array>
          </mxGeometry>
        </mxCell>
        <mxCell id="BpKrfiNGWXmPdri83k6H-79" value="" style="endArrow=classic;html=1;rounded=0;entryX=0.503;entryY=1.098;entryDx=0;entryDy=0;entryPerimeter=0;edgeStyle=orthogonalEdgeStyle;exitX=1;exitY=0.75;exitDx=0;exitDy=0;" parent="1" source="BpKrfiNGWXmPdri83k6H-37" target="BpKrfiNGWXmPdri83k6H-13" edge="1">
          <mxGeometry width="50" height="50" relative="1" as="geometry">
            <mxPoint x="590" y="340" as="sourcePoint" />
            <mxPoint x="610" y="160" as="targetPoint" />
            <Array as="points">
              <mxPoint x="751" y="343" />
            </Array>
          </mxGeometry>
        </mxCell>
        <mxCell id="BpKrfiNGWXmPdri83k6H-80" value="asks" style="text;html=1;strokeColor=none;fillColor=none;align=center;verticalAlign=middle;whiteSpace=wrap;rounded=0;strokeWidth=1;" parent="1" vertex="1">
          <mxGeometry x="150" y="380" width="60" height="30" as="geometry" />
        </mxCell>
        <mxCell id="BpKrfiNGWXmPdri83k6H-81" value="implements" style="text;html=1;strokeColor=none;fillColor=none;align=center;verticalAlign=middle;whiteSpace=wrap;rounded=0;strokeWidth=1;rotation=-65;" parent="1" vertex="1">
          <mxGeometry x="240" y="353" width="60" height="30" as="geometry" />
        </mxCell>
        <mxCell id="BpKrfiNGWXmPdri83k6H-83" value="implements" style="text;html=1;strokeColor=none;fillColor=none;align=center;verticalAlign=middle;whiteSpace=wrap;rounded=0;strokeWidth=1;rotation=66;" parent="1" vertex="1">
          <mxGeometry x="240" y="567" width="60" height="30" as="geometry" />
        </mxCell>
        <mxCell id="BpKrfiNGWXmPdri83k6H-85" value="creates" style="text;html=1;strokeColor=none;fillColor=none;align=center;verticalAlign=middle;whiteSpace=wrap;rounded=0;strokeWidth=1;" parent="1" vertex="1">
          <mxGeometry x="570" y="630" width="60" height="30" as="geometry" />
        </mxCell>
        <mxCell id="BpKrfiNGWXmPdri83k6H-86" value="implements" style="text;html=1;strokeColor=none;fillColor=none;align=center;verticalAlign=middle;whiteSpace=wrap;rounded=0;strokeWidth=1;rotation=-30;" parent="1" vertex="1">
          <mxGeometry x="740" y="200" width="60" height="30" as="geometry" />
        </mxCell>
        <mxCell id="BpKrfiNGWXmPdri83k6H-87" value="implements" style="text;html=1;strokeColor=none;fillColor=none;align=center;verticalAlign=middle;whiteSpace=wrap;rounded=0;strokeWidth=1;rotation=-30;" parent="1" vertex="1">
          <mxGeometry x="740" y="537" width="60" height="30" as="geometry" />
        </mxCell>
        <mxCell id="BpKrfiNGWXmPdri83k6H-88" value="implements" style="text;html=1;strokeColor=none;fillColor=none;align=center;verticalAlign=middle;whiteSpace=wrap;rounded=0;strokeWidth=1;rotation=30;" parent="1" vertex="1">
          <mxGeometry x="890" y="537" width="60" height="30" as="geometry" />
        </mxCell>
        <mxCell id="BpKrfiNGWXmPdri83k6H-92" value="implements" style="text;html=1;strokeColor=none;fillColor=none;align=center;verticalAlign=middle;whiteSpace=wrap;rounded=0;strokeWidth=1;rotation=30;" parent="1" vertex="1">
          <mxGeometry x="890" y="200" width="60" height="30" as="geometry" />
        </mxCell>
        <mxCell id="BpKrfiNGWXmPdri83k6H-93" value="creates" style="text;html=1;strokeColor=none;fillColor=none;align=center;verticalAlign=middle;whiteSpace=wrap;rounded=0;strokeWidth=1;" parent="1" vertex="1">
          <mxGeometry x="570" y="310" width="60" height="30" as="geometry" />
        </mxCell>
      </root>
    </mxGraphModel>
  </diagram>
</mxfile>
